# xmcd
#
# Track frame offsets: 
#        150
#        15088
#        40463
#        59476
#        86718
#        112785
#        145570
#        169960
#
# Disc length: 2721 seconds
#
# Revision: 0
# Processed by: cddbd v1.5.2PL0 Copyright (c) Steve Scherf et al.
# Submitted via: ExactAudioCopy v1.2
#
DISCID=5d0a9f08
DTITLE=Neil Hawker - South by East
DYEAR=2017
DGENRE=Blues
TTITLE0=Left a Letter
TTITLE1=Wild Bill
TTITLE2=South by East
TTITLE3=Don't Ever Leave Me
TTITLE4=Nothing Seems to Change
TTITLE5=Kings of the Night
TTITLE6=The Rest of My Life
TTITLE7=Roni's Blues
EXTD=
EXTT0=
EXTT1=
EXTT2=
EXTT3=
EXTT4=
EXTT5=
EXTT6=
EXTT7=
PLAYORDER=
